<?xml version="1.0" standalone="no"?>
<!DOCTYPE svg PUBLIC "-//W3C//DTD SVG 20010904//EN"
 "http://www.w3.org/TR/2001/REC-SVG-20010904/DTD/svg10.dtd">
<svg version="1.0" xmlns="http://www.w3.org/2000/svg"
 width="750.000000pt" height="750.000000pt" viewBox="0 0 750.000000 750.000000"
 preserveAspectRatio="xMidYMid meet">
<metadata>
Created by potrace 1.11, written by Peter Selinger 2001-2013
</metadata>
<g transform="translate(0.000000,750.000000) scale(0.100000,-0.100000)"
fill="#000000" stroke="none">
<path d="M3450 7490 c-738 -64 -1427 -332 -1998 -778 -743 -578 -1243 -1412
-1397 -2327 -40 -240 -50 -367 -50 -645 1 -276 9 -384 50 -627 263 -1556 1505
-2797 3060 -3058 239 -40 367 -50 640 -50 346 1 577 28 890 105 824 203 1545
671 2067 1342 431 553 690 1200 770 1923 17 156 17 594 0 750 -114 1031 -604
1926 -1402 2562 -546 436 -1190 702 -1905 789 -154 18 -576 26 -725 14z m540
-2125 l0 -255 -255 0 -255 0 0 255 0 255 255 0 255 0 0 -255z m-510 -1005 l0
-240 -240 0 -240 0 0 240 0 240 240 0 240 0 0 -240z m1020 0 l0 -240 -255 0
-255 0 0 240 0 240 255 0 255 0 0 -240z m-1500 -1005 l0 -255 -255 0 -255 0 0
255 0 255 255 0 255 0 0 -255z m990 0 l0 -255 -255 0 -255 0 0 255 0 255 255
0 255 0 0 -255z m990 0 l0 -255 -240 0 -240 0 0 255 0 255 240 0 240 0 0 -255z
m-2490 -990 l0 -255 -255 0 -255 0 0 255 0 255 255 0 255 0 0 -255z m3000 0
l0 -255 -255 0 -255 0 0 255 0 255 255 0 255 0 0 -255z"/>
</g>
</svg>
